<?xml version="1.0" encoding="UTF-8" standalone="no"?>
<!DOCTYPE svg PUBLIC "-//W3C//DTD SVG 1.1//EN" "http://www.w3.org/Graphics/SVG/1.1/DTD/svg11.dtd">
<svg width="100%" height="100%" viewBox="0 0 1080 1080" version="1.1" xmlns="http://www.w3.org/2000/svg" xmlns:xlink="http://www.w3.org/1999/xlink" xml:space="preserve" xmlns:serif="http://www.serif.com/" style="fill-rule:evenodd;clip-rule:evenodd;stroke-linejoin:round;stroke-miterlimit:2;">
    <g transform="matrix(1.58182,0,0,1.58182,-314.18,-180.047)">
        <path d="M238.092,478.203L238.092,432.234L256.343,432.234C260.059,432.234 263.04,432.699 265.286,433.63C267.531,434.56 269.29,435.992 270.562,437.926C271.834,439.859 272.47,441.882 272.47,443.993C272.47,445.958 271.906,447.808 270.778,449.543C269.649,451.278 267.946,452.679 265.667,453.745C268.61,454.56 270.872,455.95 272.453,457.915C274.035,459.88 274.826,462.201 274.826,464.876C274.826,467.03 274.345,469.031 273.382,470.881C272.42,472.731 271.231,474.158 269.815,475.161C268.399,476.165 266.624,476.923 264.489,477.435C262.354,477.947 259.739,478.203 256.641,478.203L238.092,478.203ZM244.529,451.55L255.049,451.55C257.902,451.55 259.949,451.372 261.188,451.017C262.825,450.557 264.058,449.794 264.887,448.728C265.717,447.662 266.132,446.324 266.132,444.714C266.132,443.188 265.745,441.845 264.97,440.685C264.196,439.525 263.09,438.73 261.652,438.302C260.214,437.873 257.748,437.659 254.252,437.659L244.529,437.659L244.529,451.55ZM244.529,472.778L256.641,472.778C258.721,472.778 260.181,472.705 261.022,472.559C262.504,472.308 263.743,471.89 264.738,471.305C265.734,470.719 266.552,469.867 267.194,468.749C267.835,467.631 268.156,466.34 268.156,464.876C268.156,463.162 267.691,461.673 266.762,460.408C265.833,459.143 264.545,458.255 262.896,457.743C261.248,457.231 258.876,456.975 255.779,456.975L244.529,456.975L244.529,472.778ZM283.785,478.203L283.785,432.234L305.355,432.234C309.691,432.234 312.987,432.647 315.243,433.473C317.5,434.299 319.303,435.757 320.652,437.847C322.002,439.938 322.676,442.248 322.676,444.777C322.676,448.038 321.559,450.787 319.325,453.024C317.09,455.26 313.639,456.682 308.972,457.288C310.675,458.062 311.969,458.825 312.854,459.577C314.734,461.208 316.515,463.246 318.197,465.692L326.658,478.203L318.562,478.203L312.124,468.639C310.244,465.88 308.695,463.769 307.478,462.305C306.262,460.842 305.172,459.818 304.21,459.232C303.247,458.647 302.269,458.239 301.273,458.009C300.543,457.863 299.348,457.79 297.689,457.79L290.223,457.79L290.223,478.203L283.785,478.203ZM290.223,452.522L304.06,452.522C307.003,452.522 309.303,452.235 310.963,451.66C312.622,451.085 313.883,450.165 314.746,448.9C315.608,447.636 316.04,446.261 316.04,444.777C316.04,442.603 315.205,440.816 313.534,439.415C311.864,438.014 309.226,437.314 305.62,437.314L290.223,437.314L290.223,452.522ZM333.859,478.203L333.859,432.234L340.297,432.234L340.297,478.203L333.859,478.203ZM364.023,478.203L364.023,437.659L347.995,437.659L347.995,432.234L386.554,432.234L386.554,437.659L370.46,437.659L370.46,478.203L364.023,478.203ZM405.535,478.203L405.535,437.659L389.508,437.659L389.508,432.234L428.067,432.234L428.067,437.659L411.973,437.659L411.973,478.203L405.535,478.203ZM434.604,478.203L434.604,432.234L441.207,432.234L466.759,468.326L466.759,432.234L472.931,432.234L472.931,478.203L466.327,478.203L440.776,442.08L440.776,478.203L434.604,478.203ZM484.844,478.203L484.844,432.234L491.281,432.234L491.281,478.203L484.844,478.203ZM521.611,478.203L521.611,432.234L543.18,432.234C547.516,432.234 550.812,432.647 553.069,433.473C555.325,434.299 557.128,435.757 558.478,437.847C559.827,439.938 560.502,442.248 560.502,444.777C560.502,448.038 559.385,450.787 557.15,453.024C554.916,455.26 551.465,456.682 546.797,457.288C548.5,458.062 549.795,458.825 550.679,459.577C552.56,461.208 554.341,463.246 556.022,465.692L564.484,478.203L556.387,478.203L549.949,468.639C548.069,465.88 546.52,463.769 545.304,462.305C544.087,460.842 542.997,459.818 542.035,459.232C541.073,458.647 540.094,458.239 539.098,458.009C538.368,457.863 537.174,457.79 535.515,457.79L528.048,457.79L528.048,478.203L521.611,478.203ZM528.048,452.522L541.886,452.522C544.828,452.522 547.129,452.235 548.788,451.66C550.447,451.085 551.708,450.165 552.571,448.9C553.434,447.636 553.865,446.261 553.865,444.777C553.865,442.603 553.03,440.816 551.36,439.415C549.689,438.014 547.051,437.314 543.445,437.314L528.048,437.314L528.048,452.522ZM568.632,455.814C568.632,448.184 570.8,442.211 575.136,437.894C579.472,433.577 585.069,431.419 591.926,431.419C596.417,431.419 600.466,432.433 604.072,434.461C607.677,436.488 610.426,439.316 612.318,442.943C614.209,446.57 615.155,450.682 615.155,455.281C615.155,459.943 614.159,464.113 612.168,467.793C610.177,471.472 607.357,474.257 603.707,476.149C600.056,478.041 596.119,478.987 591.893,478.987C587.314,478.987 583.221,477.942 579.615,475.851C576.009,473.761 573.277,470.907 571.419,467.291C569.561,463.674 568.632,459.849 568.632,455.814ZM575.268,455.909C575.268,461.448 576.845,465.812 579.997,469C583.149,472.188 587.104,473.782 591.86,473.782C596.705,473.782 600.692,472.172 603.823,468.953C606.953,465.734 608.518,461.166 608.518,455.25C608.518,451.508 607.849,448.242 606.511,445.451C605.172,442.66 603.214,440.497 600.637,438.96C598.06,437.424 595.167,436.656 591.96,436.656C587.402,436.656 583.481,438.135 580.196,441.093C576.911,444.051 575.268,448.989 575.268,455.909ZM623.65,478.203L623.65,432.234L630.087,432.234L630.087,451.111L655.373,451.111L655.373,432.234L661.811,432.234L661.811,478.203L655.373,478.203L655.373,456.536L630.087,456.536L630.087,478.203L623.65,478.203ZM672.628,478.203L672.628,432.234L694.198,432.234C698.534,432.234 701.83,432.647 704.086,433.473C706.343,434.299 708.146,435.757 709.495,437.847C710.845,439.938 711.519,442.248 711.519,444.777C711.519,448.038 710.402,450.787 708.168,453.024C705.933,455.26 702.482,456.682 697.815,457.288C699.518,458.062 700.812,458.825 701.697,459.577C703.577,461.208 705.358,463.246 707.04,465.692L715.501,478.203L707.405,478.203L700.967,468.639C699.087,465.88 697.538,463.769 696.321,462.305C695.105,460.842 694.015,459.818 693.053,459.232C692.09,458.647 691.112,458.239 690.116,458.009C689.386,457.863 688.191,457.79 686.532,457.79L679.066,457.79L679.066,478.203L672.628,478.203ZM679.066,452.522L692.903,452.522C695.846,452.522 698.146,452.235 699.806,451.66C701.465,451.085 702.726,450.165 703.589,448.9C704.451,447.636 704.883,446.261 704.883,444.777C704.883,442.603 704.048,440.816 702.377,439.415C700.707,438.014 698.069,437.314 694.463,437.314L679.066,437.314L679.066,452.522ZM721.74,478.203L721.74,432.234L756.914,432.234L756.914,437.659L728.177,437.659L728.177,451.738L755.089,451.738L755.089,457.131L728.177,457.131L728.177,472.778L758.042,472.778L758.042,478.203L721.74,478.203ZM767.035,478.203L767.035,432.234L788.604,432.234C792.94,432.234 796.237,432.647 798.493,433.473C800.749,434.299 802.552,435.757 803.902,437.847C805.251,439.938 805.926,442.248 805.926,444.777C805.926,448.038 804.809,450.787 802.575,453.024C800.34,455.26 796.889,456.682 792.221,457.288C793.925,458.062 795.219,458.825 796.104,459.577C797.984,461.208 799.765,463.246 801.446,465.692L809.908,478.203L801.811,478.203L795.374,468.639C793.493,465.88 791.945,463.769 790.728,462.305C789.511,460.842 788.422,459.818 787.46,459.232C786.497,458.647 785.518,458.239 784.523,458.009C783.793,457.863 782.598,457.79 780.939,457.79L773.473,457.79L773.473,478.203L767.035,478.203ZM773.473,452.522L787.31,452.522C790.252,452.522 792.553,452.235 794.212,451.66C795.872,451.085 797.132,450.165 797.995,448.9C798.858,447.636 799.289,446.261 799.289,444.777C799.289,442.603 798.454,440.816 796.784,439.415C795.114,438.014 792.476,437.314 788.87,437.314L773.473,437.314L773.473,452.522ZM490.532,487.703C497.275,497.893 501.265,510.271 501.265,525.21C501.265,577.888 455.395,607 379.455,607L222.478,607L222.478,593.137C263.761,593.137 271.916,586.668 271.916,548.314L271.916,487.703L318.805,487.703L318.805,588.516C331.037,589.441 343.269,589.903 355.501,589.903C399.332,589.903 447.751,584.82 447.751,526.134C447.751,509.925 443.408,497.347 436.015,487.703L490.532,487.703ZM633.778,487.703L586.38,487.703L586.38,549.701C586.38,588.516 579.244,593.137 541.019,593.137L541.019,607L684.235,607L684.235,593.137C640.404,593.137 633.778,588.054 633.778,549.701L633.778,487.703ZM740.182,487.703L685.619,487.703C704.856,513.26 720.951,534.979 773.427,607L857.522,607L857.522,593.137C834.077,593.137 821.335,589.903 805.026,569.571C774.489,530.054 754.687,504.384 740.182,487.703ZM271.916,422.703L271.916,359.319C271.916,322.352 263.761,317.269 222.478,317.269L222.478,303.406L360.088,303.406C450.808,303.406 484.956,329.745 484.956,375.492C484.956,396.504 477.107,411.605 463.792,422.703L420.025,422.703C430.415,412.839 434.499,398.498 434.499,379.189C434.499,343.146 411.564,321.428 349.385,321.428C339.701,321.428 328.998,321.89 318.805,322.814L318.805,422.703L271.916,422.703ZM586.38,422.703L586.38,351.463C586.38,326.048 581.793,317.269 541.019,317.269L541.019,303.406L666.397,303.406C742.847,303.406 797.891,320.503 797.891,379.189C797.891,397.23 792.441,411.454 783.588,422.703L732.727,422.703C741.563,412.375 746.415,398.725 746.415,381.037C746.415,344.07 722.46,321.428 667.416,321.428C656.204,321.428 644.481,321.89 633.778,322.814L633.778,422.703L586.38,422.703Z" style="fill:rgb(113,199,236);fill-rule:nonzero;"/>
    </g>
</svg>
